<?xml version="1.0" encoding="UTF-8" standalone="no"?>
<!-- Created with Inkscape (http://www.inkscape.org/) -->

<svg
   xmlns:dc="http://purl.org/dc/elements/1.1/"
   xmlns:cc="http://creativecommons.org/ns#"
   xmlns:rdf="http://www.w3.org/1999/02/22-rdf-syntax-ns#"
   xmlns:svg="http://www.w3.org/2000/svg"
   xmlns="http://www.w3.org/2000/svg"
   xmlns:sodipodi="http://sodipodi.sourceforge.net/DTD/sodipodi-0.dtd"
   xmlns:inkscape="http://www.inkscape.org/namespaces/inkscape"
   width="210mm"
   height="297mm"
   viewBox="0 0 210 297"
   version="1.1"
   id="svg8"
   inkscape:version="0.92.4 (5da689c313, 2019-01-14)"
   sodipodi:docname="no_photo.svg">
  <defs
     id="defs2" />
  <sodipodi:namedview
     id="base"
     pagecolor="#ffffff"
     bordercolor="#666666"
     borderopacity="1.0"
     inkscape:pageopacity="0.0"
     inkscape:pageshadow="2"
     inkscape:zoom="0.7"
     inkscape:cx="590.65037"
     inkscape:cy="598.83972"
     inkscape:document-units="mm"
     inkscape:current-layer="layer1"
     showgrid="false"
     inkscape:window-width="1920"
     inkscape:window-height="1017"
     inkscape:window-x="1912"
     inkscape:window-y="-3"
     inkscape:window-maximized="1" />
  <metadata
     id="metadata5">
    <rdf:RDF>
      <cc:Work
         rdf:about="">
        <dc:format>image/svg+xml</dc:format>
        <dc:type
           rdf:resource="http://purl.org/dc/dcmitype/StillImage" />
        <dc:title></dc:title>
      </cc:Work>
    </rdf:RDF>
  </metadata>
  <g
     inkscape:label="Layer 1"
     inkscape:groupmode="layer"
     id="layer1">
    <path
       inkscape:connector-curvature="0"
       id="path840"
       d="M 13.102767,103.42808 V 51.087136 h 83.745516 83.745507 v 52.340944 52.34095 H 96.848283 13.102767 Z m 109.850563,10.82666 0.58884,-0.15781 V 96.621244 c 0,-15.694135 -0.0422,-17.491894 -0.41397,-17.634552 -0.54098,-0.207596 -44.95283,-0.207596 -45.493813,0 -0.371765,0.142658 -0.413962,1.941416 -0.413962,17.645877 0,16.434251 0.02758,17.494231 0.457983,17.606721 0.694831,0.18157 44.599112,0.19655 45.274922,0.0154 z m -42.788727,-2.62543 c -0.235492,-0.0951 -0.32713,-0.98807 -0.32713,-3.18802 v -3.05603 l 4.517133,-4.5116 c 2.785046,-2.781634 4.714568,-4.511605 5.032027,-4.511605 0.292125,0 1.394855,0.874807 2.548792,2.021969 l 2.033895,2.021966 7.14253,-7.125205 c 3.92838,-3.918867 7.30904,-7.125213 7.51258,-7.125213 0.20354,0 3.08389,2.706325 6.4008,6.014059 l 6.03074,6.014057 0.0785,6.103742 c 0.0481,3.73611 -0.0255,6.37749 -0.1898,6.80947 l -0.26832,0.70574 -20.09232,-0.0207 c -11.050774,-0.0114 -20.239525,-0.08 -20.419447,-0.15265 z m 3.205883,-18.634257 c -0.575751,-0.262218 -1.474233,-0.950842 -1.996627,-1.530274 -3.026952,-3.357465 -1.420331,-8.571427 3.017548,-9.792833 1.42752,-0.392886 3.606866,0.05177 4.983988,1.016896 3.035945,2.127679 3.175747,7.027524 0.268875,9.423612 -1.701272,1.402331 -4.322825,1.771133 -6.273784,0.882599 z"
       style="fill:none;stroke-width:0.26170474" />
    <path
       inkscape:connector-curvature="0"
       id="path834"
       d="m 2.180727,161.26169 c -0.18306,-0.18303 -0.332851,-3.22323 -0.332851,-6.75587 0,-5.48599 0.119165,-6.46876 0.816775,-6.73647 0.449227,-0.17249 1.179416,-0.0854 1.6226423,0.19365 0.6451937,0.40598 0.8348287,1.59153 0.9510934,5.94594 0.177626,6.65242 -0.03334,7.6856 -1.5693507,7.6856 -0.635502,0 -1.305244,-0.14982 -1.488309,-0.33285 z m 5.3898235,-0.28551 c -0.144621,-0.37687 -0.199511,-3.48117 -0.121977,-6.89845 l 0.140961,-6.21326 1.5801431,-0.15323 c 1.4767054,-0.14322 1.6891524,0.0509 3.2452884,2.966 0.915829,1.71562 1.905178,3.1939 2.198561,3.28514 0.29338,0.0911 1.06192,-0.96253 1.70787,-2.34165 1.434539,-3.0628 2.553937,-4.13774 4.08329,-3.92113 1.15422,0.16341 1.164545,0.22468 1.164545,6.90514 v 6.74021 h -1.497825 c -1.46962,0 -1.502602,-0.0563 -1.751651,-2.99564 l -0.253827,-2.99566 -1.168498,1.87228 c -1.57018,2.51593 -3.252786,2.56346 -4.415697,0.1249 -0.45832,-0.96112 -1.005157,-1.74746 -1.215196,-1.74746 -0.210035,0 -0.449268,1.29184 -0.531624,2.87082 -0.141828,2.71925 -0.222382,2.87919 -1.5255784,3.0291 -0.8269044,0.0951 -1.4807541,-0.11516 -1.6387881,-0.52698 z m 15.2468725,-0.0342 c 0,-1.30848 4.795922,-12.50285 5.564092,-12.9874 0.434918,-0.27433 1.133563,-0.36725 1.552544,-0.20648 0.945923,0.36299 5.969043,12.94091 5.397004,13.51412 -0.825592,0.82729 -2.768291,0.0829 -3.437259,-1.31722 -0.596319,-1.24797 -0.894142,-1.38332 -2.746961,-1.2482 -1.701433,0.12421 -2.196864,0.40048 -2.733191,1.52459 -0.495611,1.03879 -1.013029,1.37302 -2.125648,1.37302 -0.877667,0 -1.470581,-0.26305 -1.470581,-0.65243 z m 7.185941,-5.25224 c 0.36587,-0.592 -0.22709,-2.58302 -0.769267,-2.58302 -0.640301,0 -1.087776,1.35112 -0.744096,2.24674 0.313096,0.81592 1.107793,0.99252 1.513363,0.33628 z m 9.10368,4.79162 c -2.729057,-2.01097 -3.580189,-6.20224 -1.896885,-9.34096 1.684721,-3.14133 6.386921,-4.52862 9.086916,-2.6809 2.22049,1.51957 2.477641,2.35047 0.976127,3.15403 -0.770375,0.41232 -1.266152,0.35774 -2.108189,-0.23205 -2.566117,-1.79737 -5.372238,-0.17191 -5.372238,3.11198 0,2.65283 1.147778,4.10529 3.244134,4.10529 2.153067,0 2.635383,-0.77435 1.204166,-1.93329 -1.822229,-1.47556 -0.96365,-2.56018 2.026608,-2.56018 h 2.512042 v 3.66438 3.66437 l -4.119018,0.0523 c -3.461969,0.0439 -4.347867,-0.11639 -5.553663,-1.00491 z m 11.473561,0.32329 c -0.59305,-1.54545 -0.327934,-11.46725 0.33047,-12.36766 0.531483,-0.72687 1.31553,-0.84275 4.867932,-0.71953 4.144681,0.14379 4.234405,0.17342 4.234405,1.39507 0,1.16496 -0.199709,1.26482 -2.995649,1.49781 -2.579591,0.21497 -2.99565,0.38833 -2.99565,1.24819 0,0.83453 0.383032,1.02329 2.331779,1.14911 2.502729,0.16153 3.616264,0.97743 3.115441,2.28254 -0.220505,0.57464 -0.935318,0.8122 -2.443851,0.8122 -2.154553,0 -3.637559,0.97095 -3.016885,1.97522 0.177154,0.28664 1.389253,0.52115 2.693568,0.52115 2.700909,0 4.382616,0.93592 3.907312,2.17454 -0.457971,1.19344 -9.572001,1.22196 -10.028872,0.0313 z m 15.976799,0 c -0.509329,-1.3273 -0.336744,-11.19554 0.213785,-12.22423 0.940965,-1.75819 2.3148,-1.10244 5.071486,2.42072 1.457345,1.86254 2.874386,3.43867 3.148988,3.50251 0.277162,0.0644 0.610329,-1.38655 0.748913,-3.2616 0.236761,-3.20347 0.314023,-3.37772 1.497825,-3.37772 h 1.248187 l 0.138902,6.86502 0.138904,6.86506 h -1.233069 c -0.908776,0 -1.930117,-0.84469 -3.88347,-3.21174 -1.457719,-1.76646 -2.931244,-3.22685 -3.274495,-3.2453 -0.43871,-0.0236 -0.624094,0.93046 -0.624094,3.21173 v 3.24531 H 68.30486 c -0.856539,0 -1.567756,-0.32143 -1.747465,-0.78976 z m 16.979291,-0.25288 c -5.192221,-4.08419 -2.669058,-12.93707 3.687207,-12.93707 3.164738,0 6.180704,2.58363 6.786693,5.81384 0.468026,2.49479 -0.956978,5.8786 -3.009939,7.14742 -2.22116,1.37274 -5.702385,1.36147 -7.463961,-0.0242 z m 6.16733,-2.68235 c 0.332912,-0.40114 0.718826,-1.58067 0.857584,-2.62121 0.632845,-4.74547 -4.828091,-6.45284 -6.306947,-1.97188 -0.587797,1.78103 -0.341699,3.03113 0.875774,4.44868 0.915376,1.06583 3.734997,1.15486 4.573589,0.14436 z m 8.395977,-1.64223 -0.14171,-5.36721 -1.829438,-0.15246 c -1.873169,-0.15607 -2.614144,-0.99282 -2.0896,-2.35977 0.24388,-0.63554 1.232183,-0.74096 5.850799,-0.6241 l 5.557357,0.14058 v 1.24819 c 0,1.08197 -0.24935,1.26884 -1.87229,1.40316 l -1.87227,0.15492 v 4.67216 c 0,5.66935 -0.18942,6.25164 -2.033617,6.25164 h -1.427521 z m 11.591248,4.46515 c 0,-0.49612 1.08104,-3.58538 2.40232,-6.86503 1.91621,-4.75637 2.61701,-5.99442 3.46336,-6.11838 0.67581,-0.099 1.33131,0.26359 1.80538,0.99853 0.97618,1.51349 4.81081,11.19651 4.81081,12.14807 0,0.48506 -0.50512,0.73888 -1.47058,0.73888 -1.11265,0 -1.62997,-0.33417 -2.12546,-1.37302 -0.51537,-1.08051 -1.05421,-1.40607 -2.52935,-1.52829 -1.64222,-0.13601 -1.982,0.0336 -2.74247,1.36984 -1.01793,1.78861 -3.61401,2.24075 -3.61401,0.6294 z m 6.7402,-6.08779 c 0,-0.64073 -0.25221,-1.24905 -0.56051,-1.35183 -0.61329,-0.20442 -1.30401,1.75703 -0.86747,2.46338 0.49421,0.79963 1.42798,0.0728 1.42798,-1.11155 z m 9.09252,5.64727 c -1.64175,-3.28937 -4.4191,-11.23607 -4.16155,-11.90722 0.34249,-0.89251 2.09903,-0.96256 2.65352,-0.10581 0.22215,0.34324 0.96892,2.15977 1.65947,4.03671 0.69057,1.87692 1.47693,3.44964 1.74749,3.49492 0.27054,0.0453 1.07633,-1.59262 1.79067,-3.63974 1.34175,-3.84523 2.21967,-4.90119 3.62611,-4.36148 1.20176,0.46118 0.9926,1.49236 -1.58897,7.8339 -2.1035,5.16716 -2.47189,5.75718 -3.68184,5.89689 -1.05412,0.12174 -1.4957,-0.14774 -2.0449,-1.24818 z m 7.63321,0.60371 c 0,-0.4064 0.87619,-2.93397 1.94708,-5.61684 3.08067,-7.71796 3.06527,-7.69212 4.47986,-7.52352 1.09637,0.13052 1.54977,0.88923 3.65332,6.11214 2.83159,7.03056 2.92932,7.76831 1.02861,7.76393 -1.00087,-0.001 -1.60352,-0.40826 -2.22351,-1.49782 -0.69702,-1.2249 -1.17429,-1.49467 -2.64442,-1.49467 -1.47015,0 -1.94741,0.26977 -2.64442,1.49467 -0.62,1.08956 -1.22264,1.49552 -2.22351,1.49782 -0.88074,0.001 -1.37301,-0.26175 -1.37301,-0.73571 z m 6.8982,-6.01687 c -0.0871,-0.69503 -0.38266,-1.2637 -0.65726,-1.2637 -0.27459,0 -0.57036,0.56867 -0.65728,1.2637 -0.11269,0.90066 0.0763,1.26372 0.65728,1.26372 0.58102,0 0.76985,-0.36306 0.65726,-1.26372 z m 7.31214,6.1374 c -0.14455,-0.37689 -0.19951,-3.48119 -0.12187,-6.89848 l 0.14097,-6.21325 1.3556,-0.15624 c 1.78162,-0.20543 1.9685,0.62118 1.78494,7.89507 l -0.14492,5.74165 -1.37585,0.15833 c -0.82688,0.0951 -1.48074,-0.11515 -1.63878,-0.52698 z m 5.06516,-0.17136 c -0.16662,-0.43435 -0.30305,-3.19984 -0.30305,-6.14551 0,-5.71935 0.51873,-7.30496 2.27974,-6.96857 0.86172,0.16454 0.99239,0.74759 1.21519,5.42148 l 0.24964,5.23706 2.99565,0.284 c 1.6476,0.15625 3.32535,0.38086 3.7283,0.49927 0.53035,0.15586 1.31307,-1.23235 2.8345,-5.02708 2.3762,-5.92683 2.83777,-6.61033 4.31799,-6.39441 0.84218,0.12284 1.57011,1.44829 3.64896,6.64403 1.42833,3.56982 2.49346,6.65909 2.36697,6.86503 -0.1264,0.20595 -0.83455,0.37304 -1.57348,0.3713 -0.96814,-10e-4 -1.5812,-0.4208 -2.19406,-1.49783 -0.697,-1.2249 -1.17427,-1.49466 -2.6444,-1.49466 -1.47016,0 -1.94742,0.26976 -2.64443,1.49466 l -0.85052,1.49468 -6.56197,0.005 c -5.52502,0.001 -6.60986,-0.12173 -6.86503,-0.7866 z m 17.83239,-5.07672 c 0.37798,-0.64193 -0.62509,-2.70223 -1.15587,-2.37417 -0.78604,0.4858 -0.60827,2.74862 0.21595,2.74862 0.39569,0 0.81866,-0.16851 0.93992,-0.37445 z m 6.6619,5.53363 c -0.61675,-0.61673 -0.37616,-12.40529 0.26628,-13.04773 0.36356,-0.36356 2.13023,-0.59912 4.49347,-0.59912 3.30472,0 4.05493,0.16058 4.95505,1.06072 0.89003,0.89003 1.01479,1.44865 0.77527,3.47105 -0.19354,1.63435 -0.0468,2.88858 0.45566,3.89594 0.89736,1.79874 0.49926,3.79124 -0.96197,4.81472 -1.08431,0.75948 -9.29608,1.09213 -9.98376,0.40442 z m 7.91868,-3.18395 c 0.62039,-1.0038 -0.86705,-2.0307 -2.71679,-1.87564 -1.42041,0.11899 -1.82314,0.38209 -1.94974,1.2734 -0.14512,1.02254 0.0427,1.12339 2.09246,1.12339 1.2386,0 2.39693,-0.23452 2.57407,-0.52115 z m -0.62794,-5.59498 c 0.42069,-1.20603 -0.25753,-1.87228 -1.90589,-1.87228 -1.78473,0 -2.48026,0.606 -2.03306,1.77137 0.34526,0.89973 3.63094,0.9839 3.93895,0.10106 z m 5.96755,2.25295 c 0.12818,-6.32511 0.21402,-6.87326 1.10445,-7.04415 1.69837,-0.32596 2.27975,1.27034 2.27975,6.25963 v 4.6477 h 2.71036 c 2.87129,0 4.4718,0.91499 3.95521,2.26119 -0.22184,0.57813 -1.33611,0.73446 -5.23527,0.73446 h -4.95342 z m 11.09114,6.20704 c -0.13757,-0.35849 -0.18663,-3.44774 -0.10908,-6.86503 l 0.14097,-6.21326 h 4.7431 c 4.72646,0 4.74312,0.005 4.74312,1.2482 0,1.16496 -0.19971,1.26483 -2.99566,1.49782 -2.57958,0.21497 -2.99564,0.38833 -2.99564,1.24819 0,0.83212 0.41606,1.04014 2.49638,1.24819 2.26337,0.22633 2.49637,0.36614 2.49637,1.49783 0,1.13168 -0.233,1.27148 -2.49637,1.49782 -2.11755,0.21175 -2.52059,0.42012 -2.65592,1.37299 -0.14718,1.03618 0.0338,1.12339 2.33072,1.12339 3.26468,0 4.06976,0.35624 4.06976,1.80086 0,1.17662 -0.0724,1.19479 -4.75878,1.19479 -3.4543,0 -4.82735,-0.1787 -5.0089,-0.65179 z M 65.505438,119.37237 c -1.925982,-0.99809 -4.634181,-3.5903 -5.522986,-5.28648 -0.855631,-1.63288 -12.201277,-66.03703 -12.201277,-69.26118 0,-2.95087 1.308444,-5.42146 3.796216,-7.16797 1.778822,-1.24879 4.404216,-1.79626 30.653758,-6.39217 15.789553,-2.76451 35.785521,-6.26664 44.435441,-7.78248 13.94297,-2.44342 15.95373,-2.68891 17.72428,-2.16396 4.3397,1.28669 6.16329,3.88267 7.27937,10.36251 0.34502,2.00319 0.87037,3.79508 1.16746,3.98196 0.29707,0.18689 2.04715,0.47988 3.88909,0.65111 4.01245,0.373 6.49069,1.98197 7.92809,5.14722 0.8828,1.944 0.93324,3.93031 0.93324,36.75469 0,32.68144 -0.0535,34.81575 -0.92171,36.69669 -1.06635,2.31048 -2.70701,3.95259 -4.70569,4.70986 -0.95858,0.36317 -15.96244,0.53157 -47.1815,0.52947 -40.425687,-0.001 -45.951024,-0.0937 -47.273782,-0.77927 z m 92.016362,-7.30592 c 0.86629,-0.86629 0.86629,-66.83539 0,-67.70169 -0.45694,-0.45694 -11.05781,-0.59913 -44.66756,-0.59913 -43.058133,0 -44.080228,0.0221 -44.585225,0.96573 -0.714423,1.33491 -0.714423,65.63357 0,66.96849 0.504997,0.9436 1.527092,0.96574 44.585225,0.96574 33.60975,0 44.21062,-0.14228 44.66756,-0.59914 z m -82.975997,-6.68119 c -0.166679,-0.43435 -0.303053,-2.72271 -0.303053,-5.08522 v -4.29549 l 8.593831,-8.64483 c 4.726607,-4.75466 8.934266,-8.64484 9.350357,-8.64484 0.416097,0 2.502638,1.73585 4.636763,3.85748 l 3.880199,3.85747 13.62637,-13.59333 c 7.49448,-7.47634 13.84808,-13.59334 14.11909,-13.59334 0.271,0 5.59759,5.12251 11.83687,11.38337 l 11.34413,11.38339 v 11.29279 c 0,6.21104 -0.13642,11.6482 -0.30305,12.08255 -0.27269,0.71059 -4.12035,0.78975 -38.39077,0.78975 -34.270402,0 -38.118054,-0.079 -38.390737,-0.78975 z M 80.483689,70.39615 C 70.547221,65.15778 73.901201,50.2562 85.016691,50.2562 c 5.846291,0 10.672956,4.74157 10.672956,10.48478 0,4.01206 -2.76783,8.30118 -6.327791,9.80577 -2.160116,0.91294 -7.017045,0.83055 -8.878167,-0.1506 z M 60.26305,56.68104 V 43.13488 l -2.057552,0.27597 c -1.131658,0.1518 -2.274977,0.4934 -2.540716,0.75914 -0.311367,0.31136 0.252185,4.71914 1.584923,12.39646 2.11071,12.15883 2.418265,13.66076 2.797353,13.66076 0.118787,0 0.215992,-6.09578 0.215992,-13.54617 z m 83.56782,-23.5679 c -0.10558,-5.05859 0.84469,-4.97404 -18.28398,-1.62712 -21.49722,3.76133 -21.95147,3.85798 -20.34912,4.32961 0.6865,0.20206 9.67346,0.33225 19.971,0.28931 l 18.72284,-0.0781 z"
       style="fill:#d8d8d8;stroke-width:0.49927506" />
  </g>
</svg>
